<?xml version="1.0" standalone="no"?>
<!DOCTYPE svg PUBLIC "-//W3C//DTD SVG 20010904//EN"
 "http://www.w3.org/TR/2001/REC-SVG-20010904/DTD/svg10.dtd">
<svg version="1.0" xmlns="http://www.w3.org/2000/svg"
 width="350.000000pt" height="350.000000pt" viewBox="0 0 350.000000 350.000000"
 preserveAspectRatio="xMidYMid meet">

<g transform="translate(0.000000,350.000000) scale(0.100000,-0.100000)"
fill="#000000" stroke="none">
<path d="M860 2307 l0 -294 -247 -66 -248 -65 98 -1 c53 -1 105 4 115 10 9 5
80 32 157 58 l140 49 3 296 2 296 25 0 c16 0 28 -7 31 -17 3 -10 45 -113 92
-230 l87 -212 3 230 2 230 33 -3 c24 -2 31 -7 29 -20 -3 -16 7 -18 98 -18 60
0 100 4 100 10 0 6 42 10 105 10 63 0 105 -4 105 -10 0 -6 37 -10 90 -10 53 0
90 4 90 10 0 6 53 10 140 10 87 0 140 -4 140 -10 0 -6 37 -10 91 -10 79 0 90
2 85 16 -3 9 -6 20 -6 25 0 5 -230 9 -570 9 l-569 0 -3 -137 -3 -138 -50 137
-50 138 -57 0 -58 0 0 -293z"/>
<path d="M2279 2573 c7 -24 120 -300 165 -403 14 -33 15 -20 16 198 0 224 -1
232 -20 232 -18 0 -20 -8 -22 -137 l-3 -138 -50 137 c-43 120 -53 138 -72 138
-19 0 -21 -3 -14 -27z"/>
<path d="M2530 2304 l5 -296 145 -50 c80 -28 149 -54 155 -59 12 -12 -345 -12
-364 0 -7 5 -11 13 -7 19 3 5 -34 106 -84 223 l-89 214 -1 -227 0 -228 -36 0
c-31 0 -35 3 -29 20 6 19 2 20 -84 20 -54 0 -91 -4 -91 -10 0 -6 -53 -10 -140
-10 -87 0 -140 4 -140 10 0 6 -34 10 -81 10 -76 0 -80 -1 -74 -20 6 -19 2 -20
-119 -20 -119 0 -126 1 -126 20 0 19 -7 20 -90 20 -89 0 -90 0 -90 -25 0 -22
-4 -25 -36 -25 -28 0 -35 3 -30 15 3 8 -35 110 -84 227 l-89 213 -1 -232 c0
-226 1 -233 20 -233 19 0 20 7 21 148 1 167 -4 169 69 -30 l42 -118 614 0 613
0 3 148 3 147 49 -138 c28 -75 53 -142 56 -147 4 -7 111 -9 300 -8 l294 3
-237 65 -237 65 0 292 c0 272 -1 293 -17 293 -17 0 -18 -19 -13 -296z"/>
<path d="M1184 2514 c3 -9 6 -137 6 -285 l0 -269 90 0 90 0 0 269 c0 148 3
276 6 285 5 14 -7 16 -96 16 -89 0 -101 -2 -96 -16z m146 -279 l0 -225 -55 0
-55 0 0 225 0 225 55 0 55 0 0 -225z"/>
<path d="M1594 2515 c4 -13 -8 -15 -79 -15 l-85 0 0 -110 0 -110 75 0 75 0 0
-37 0 -38 -75 3 -75 4 0 -122 0 -121 90 3 c50 2 90 0 90 -4 0 -5 36 -8 80 -8
l80 0 0 285 0 285 -91 0 c-77 0 -90 -2 -85 -15z m136 -280 l0 -225 -130 0
-130 0 0 85 0 85 70 0 70 0 0 65 0 65 -70 0 -70 0 0 75 0 75 130 0 130 0 0
-225z"/>
<path d="M2050 2245 l0 -285 88 0 87 0 0 285 0 285 -87 0 -88 0 0 -285z m150
-10 l0 -225 -55 0 -55 0 0 225 0 225 55 0 55 0 0 -225z"/>
<path d="M1825 2245 l0 -265 85 0 85 0 0 265 0 265 -85 0 -85 0 0 -265z m125
-5 l0 -230 -40 0 -40 0 0 230 0 230 40 0 40 0 0 -230z"/>
<path d="M3035 1860 c-4 -7 -459 -10 -1333 -10 l-1328 0 -52 -53 -52 -53 0
-412 c0 -388 -1 -411 -18 -405 -16 7 -16 5 -1 -17 16 -24 20 -25 159 -28 198
-4 190 -11 190 168 l0 140 95 0 95 0 0 -138 c0 -122 2 -141 18 -155 16 -15 52
-17 293 -17 201 0 278 3 287 12 7 7 12 42 13 83 l1 70 27 -80 28 -80 126 -3
c119 -2 126 -1 132 18 8 26 22 26 30 0 6 -19 15 -20 130 -20 l123 0 30 88 30
87 1 -71 c1 -111 -28 -104 419 -104 l382 0 1 43 1 42 15 -42 15 -43 142 0 c97
0 146 4 154 12 27 27 13 101 -43 237 -30 73 -55 138 -55 145 0 6 25 36 55 66
l55 54 0 171 0 171 -68 67 c-66 66 -85 77 -97 57z m-2303 -107 l28 -27 0 -205
0 -205 -32 -33 c-32 -33 -33 -33 -125 -33 l-93 0 0 -135 0 -135 -85 0 -85 0 0
400 0 400 182 0 182 0 28 -27z m588 -373 l0 -400 -220 0 -220 0 0 400 0 400
220 0 220 0 0 -400z m291 308 l13 -93 12 90 c7 50 13 91 13 93 1 1 36 2 80 2
l79 0 5 -32 c4 -18 9 -61 13 -96 4 -34 10 -64 14 -67 4 -2 15 41 24 95 l18
100 93 0 94 0 -5 -32 c-3 -18 -31 -199 -62 -403 l-57 -370 -82 -3 -81 -3 -12
58 c-7 32 -18 83 -25 113 l-12 55 -12 -57 c-6 -32 -16 -83 -22 -113 l-10 -55
-80 0 c-43 0 -79 1 -79 3 0 2 -9 54 -20 115 -11 62 -21 124 -21 139 -2 27 -72
467 -85 526 l-6 27 100 0 100 0 13 -92z m919 12 l0 -80 -95 0 -95 0 0 -75 0
-75 75 0 75 0 0 -85 0 -85 -75 0 -75 0 0 -75 0 -75 100 0 100 0 0 -85 0 -85
-200 0 -200 0 0 400 0 400 195 0 195 0 0 -80z m512 53 l28 -27 0 -170 0 -170
-32 -33 c-18 -18 -38 -33 -45 -33 -7 0 -13 -4 -13 -9 0 -5 25 -79 55 -166 30
-86 55 -159 55 -161 0 -3 -41 -3 -91 -2 l-91 3 -47 129 -46 129 -3 -131 -3
-132 -84 0 -85 0 0 400 0 400 187 0 187 0 28 -27z"/>
<path d="M350 1380 l0 -390 75 0 75 0 0 135 0 135 93 0 c92 0 93 0 125 33 l32
33 0 195 0 195 -28 27 -28 27 -172 0 -172 0 0 -390z m327 328 l33 -32 0 -165
0 -165 -27 -28 c-26 -27 -30 -28 -125 -28 l-98 0 0 -125 0 -125 -35 0 -35 0 0
350 0 350 127 0 127 0 33 -32z"/>
<path d="M460 1515 l0 -155 90 0 90 0 0 155 0 155 -90 0 -90 0 0 -155z m140 0
l0 -125 -50 0 -50 0 0 125 0 125 50 0 50 0 0 -125z"/>
<path d="M510 1520 l0 -110 40 0 40 0 0 110 0 110 -40 0 -40 0 0 -110z"/>
<path d="M890 1380 l0 -390 210 0 210 0 0 390 0 390 -210 0 -210 0 0 -390z
m380 5 l0 -355 -170 0 -170 0 0 355 0 355 170 0 170 0 0 -355z"/>
<path d="M1000 1385 l0 -285 100 0 100 0 0 285 0 285 -100 0 -100 0 0 -285z
m160 0 l0 -255 -60 0 -60 0 0 255 0 255 60 0 60 0 0 -255z"/>
<path d="M1050 1385 l0 -245 50 0 50 0 0 245 0 245 -50 0 -50 0 0 -245z"/>
<path d="M1425 1748 c2 -13 27 -178 55 -368 28 -190 53 -355 56 -368 4 -22 9
-23 77 -20 l72 3 25 160 25 160 25 -160 25 -160 72 -3 c68 -3 73 -2 77 20 3
13 28 178 56 368 28 190 53 355 55 368 5 21 3 22 -74 22 -92 0 -79 23 -107
-187 -10 -73 -19 -131 -20 -130 -1 1 -13 73 -25 160 l-22 157 -62 0 -62 0 -23
-167 -24 -168 -22 160 c-13 88 -23 163 -24 168 0 4 -36 7 -80 7 -78 0 -80 -1
-75 -22z m110 -30 c3 -13 18 -106 35 -208 36 -218 41 -243 46 -237 2 2 22 98
44 213 22 115 42 219 45 232 4 17 13 22 35 22 35 0 30 18 70 -230 36 -218 41
-243 46 -237 2 2 22 98 44 213 22 115 42 219 45 232 4 17 12 22 35 22 26 0 30
-3 25 -22 -3 -13 -30 -162 -60 -333 -69 -388 -61 -355 -89 -355 -29 0 -24 -19
-71 284 -19 126 -37 231 -39 234 -5 4 -10 -21 -61 -293 -20 -104 -39 -198 -41
-207 -8 -27 -52 -23 -59 5 -13 60 -115 663 -115 682 0 3 13 5 30 5 23 0 31 -5
35 -22z"/>
<path d="M2160 1380 l0 -390 180 0 180 0 0 70 0 70 -100 0 -100 0 0 95 0 95
80 0 80 0 0 70 0 70 -80 0 -80 0 0 85 0 85 100 0 100 0 0 70 0 70 -180 0 -180
0 0 -390z m310 320 l0 -40 -95 0 -95 0 0 -115 0 -115 85 0 85 0 0 -40 0 -40
-85 0 -85 0 0 -125 0 -125 105 0 105 0 0 -40 0 -40 -140 0 -140 0 0 360 0 360
130 0 130 0 0 -40z"/>
<path d="M2650 1380 l0 -390 75 0 75 0 1 168 0 167 61 -167 61 -168 78 0 79 0
-11 28 c-17 43 -109 303 -109 308 0 2 8 4 18 4 10 0 30 13 45 28 l27 28 0 165
0 165 -28 27 -28 27 -172 0 -172 0 0 -390z m342 333 c16 -14 18 -33 18 -161 0
-136 -1 -147 -22 -169 -13 -14 -33 -23 -50 -23 -26 0 -28 -3 -22 -22 26 -84
94 -303 94 -306 0 -2 -12 -2 -27 0 -26 3 -31 13 -84 163 l-57 160 -41 3 -41 3
0 -165 0 -166 -35 0 -35 0 0 350 0 350 142 0 c118 0 145 -3 160 -17z"/>
<path d="M2760 1540 l0 -130 90 0 90 0 0 130 0 130 -90 0 -90 0 0 -130z m150
0 l0 -100 -55 0 -55 0 0 100 0 100 55 0 55 0 0 -100z"/>
<path d="M2810 1540 l0 -90 45 0 45 0 0 90 0 90 -45 0 -45 0 0 -90z"/>
</g>
</svg>
